<mxfile host="app.diagrams.net" agent="Mozilla/5.0 (X11; Ubuntu; Linux x86_64; rv:138.0) Gecko/20100101 Firefox/138.0" version="26.3.0">
  <diagram name="Page-1" id="o2oB8-Q5apjzaXe0tYmv">
    <mxGraphModel dx="1106" dy="555" grid="1" gridSize="10" guides="1" tooltips="1" connect="1" arrows="1" fold="1" page="1" pageScale="1" pageWidth="850" pageHeight="1100" math="0" shadow="0">
      <root>
        <mxCell id="0" />
        <mxCell id="1" parent="0" />
        <mxCell id="pHP85MaujFTr8OWrM71P-2" style="edgeStyle=orthogonalEdgeStyle;rounded=0;orthogonalLoop=1;jettySize=auto;html=1;entryX=0;entryY=0.5;entryDx=0;entryDy=0;" edge="1" parent="1" source="cKVmSCA1GTdUARFPXMOm-1" target="pHP85MaujFTr8OWrM71P-1">
          <mxGeometry relative="1" as="geometry">
            <Array as="points">
              <mxPoint x="470" y="80" />
              <mxPoint x="470" y="80" />
            </Array>
          </mxGeometry>
        </mxCell>
        <mxCell id="cKVmSCA1GTdUARFPXMOm-1" value="&lt;div&gt;micro-controller&lt;/div&gt;&lt;div&gt;&lt;br&gt;&lt;/div&gt;" style="rounded=0;whiteSpace=wrap;html=1;" parent="1" vertex="1">
          <mxGeometry x="320" y="50" width="120" height="340" as="geometry" />
        </mxCell>
        <mxCell id="pHP85MaujFTr8OWrM71P-24" style="edgeStyle=orthogonalEdgeStyle;rounded=0;orthogonalLoop=1;jettySize=auto;html=1;entryX=0;entryY=0.5;entryDx=0;entryDy=0;" edge="1" parent="1" source="pHP85MaujFTr8OWrM71P-1" target="pHP85MaujFTr8OWrM71P-23">
          <mxGeometry relative="1" as="geometry" />
        </mxCell>
        <mxCell id="pHP85MaujFTr8OWrM71P-1" value="multiplexer" style="rounded=1;whiteSpace=wrap;html=1;" vertex="1" parent="1">
          <mxGeometry x="540" y="50" width="120" height="60" as="geometry" />
        </mxCell>
        <mxCell id="pHP85MaujFTr8OWrM71P-3" value="GPIO" style="text;html=1;align=center;verticalAlign=middle;whiteSpace=wrap;rounded=0;" vertex="1" parent="1">
          <mxGeometry x="390" y="65" width="60" height="30" as="geometry" />
        </mxCell>
        <mxCell id="pHP85MaujFTr8OWrM71P-7" style="edgeStyle=orthogonalEdgeStyle;rounded=0;orthogonalLoop=1;jettySize=auto;html=1;" edge="1" parent="1" source="pHP85MaujFTr8OWrM71P-4">
          <mxGeometry relative="1" as="geometry">
            <mxPoint x="250" y="230" as="targetPoint" />
          </mxGeometry>
        </mxCell>
        <mxCell id="pHP85MaujFTr8OWrM71P-4" value="PWM" style="text;html=1;align=center;verticalAlign=middle;whiteSpace=wrap;rounded=0;" vertex="1" parent="1">
          <mxGeometry x="310" y="160" width="60" height="30" as="geometry" />
        </mxCell>
        <mxCell id="pHP85MaujFTr8OWrM71P-13" style="edgeStyle=orthogonalEdgeStyle;rounded=0;orthogonalLoop=1;jettySize=auto;html=1;entryX=0.5;entryY=0;entryDx=0;entryDy=0;" edge="1" parent="1" source="pHP85MaujFTr8OWrM71P-9" target="pHP85MaujFTr8OWrM71P-12">
          <mxGeometry relative="1" as="geometry" />
        </mxCell>
        <mxCell id="pHP85MaujFTr8OWrM71P-9" value="motor driver" style="rounded=0;whiteSpace=wrap;html=1;" vertex="1" parent="1">
          <mxGeometry x="190" y="230" width="120" height="60" as="geometry" />
        </mxCell>
        <mxCell id="pHP85MaujFTr8OWrM71P-11" style="edgeStyle=orthogonalEdgeStyle;rounded=0;orthogonalLoop=1;jettySize=auto;html=1;entryX=0.25;entryY=0;entryDx=0;entryDy=0;" edge="1" parent="1" source="pHP85MaujFTr8OWrM71P-10" target="pHP85MaujFTr8OWrM71P-9">
          <mxGeometry relative="1" as="geometry">
            <Array as="points">
              <mxPoint x="220" y="160" />
            </Array>
          </mxGeometry>
        </mxCell>
        <mxCell id="pHP85MaujFTr8OWrM71P-10" value="GPIO" style="text;html=1;align=center;verticalAlign=middle;whiteSpace=wrap;rounded=0;" vertex="1" parent="1">
          <mxGeometry x="310" y="140" width="60" height="30" as="geometry" />
        </mxCell>
        <mxCell id="pHP85MaujFTr8OWrM71P-12" value="motor" style="ellipse;whiteSpace=wrap;html=1;" vertex="1" parent="1">
          <mxGeometry x="190" y="340" width="120" height="80" as="geometry" />
        </mxCell>
        <mxCell id="pHP85MaujFTr8OWrM71P-15" value="up and down push buttons" style="ellipse;whiteSpace=wrap;html=1;" vertex="1" parent="1">
          <mxGeometry x="170" y="40" width="90" height="80" as="geometry" />
        </mxCell>
        <mxCell id="pHP85MaujFTr8OWrM71P-34" style="edgeStyle=orthogonalEdgeStyle;rounded=0;orthogonalLoop=1;jettySize=auto;html=1;entryX=1;entryY=0.5;entryDx=0;entryDy=0;" edge="1" parent="1" source="pHP85MaujFTr8OWrM71P-17" target="pHP85MaujFTr8OWrM71P-15">
          <mxGeometry relative="1" as="geometry" />
        </mxCell>
        <mxCell id="pHP85MaujFTr8OWrM71P-17" value="GPIO" style="text;html=1;align=center;verticalAlign=middle;whiteSpace=wrap;rounded=0;" vertex="1" parent="1">
          <mxGeometry x="310" y="65" width="60" height="30" as="geometry" />
        </mxCell>
        <mxCell id="pHP85MaujFTr8OWrM71P-19" value="4X4 MATRIX" style="ellipse;whiteSpace=wrap;html=1;" vertex="1" parent="1">
          <mxGeometry x="500" y="335" width="80" height="80" as="geometry" />
        </mxCell>
        <mxCell id="pHP85MaujFTr8OWrM71P-25" style="edgeStyle=orthogonalEdgeStyle;rounded=0;orthogonalLoop=1;jettySize=auto;html=1;" edge="1" parent="1" source="pHP85MaujFTr8OWrM71P-22" target="pHP85MaujFTr8OWrM71P-19">
          <mxGeometry relative="1" as="geometry" />
        </mxCell>
        <mxCell id="pHP85MaujFTr8OWrM71P-22" value="GPIO" style="text;html=1;align=center;verticalAlign=middle;whiteSpace=wrap;rounded=0;" vertex="1" parent="1">
          <mxGeometry x="390" y="360" width="60" height="30" as="geometry" />
        </mxCell>
        <mxCell id="pHP85MaujFTr8OWrM71P-23" value="8 photo transistors" style="ellipse;whiteSpace=wrap;html=1;" vertex="1" parent="1">
          <mxGeometry x="700" y="40" width="120" height="80" as="geometry" />
        </mxCell>
        <mxCell id="pHP85MaujFTr8OWrM71P-26" value="LCD" style="rounded=0;whiteSpace=wrap;html=1;" vertex="1" parent="1">
          <mxGeometry x="520" y="250" width="120" height="60" as="geometry" />
        </mxCell>
        <mxCell id="pHP85MaujFTr8OWrM71P-30" style="edgeStyle=orthogonalEdgeStyle;rounded=0;orthogonalLoop=1;jettySize=auto;html=1;" edge="1" parent="1" source="pHP85MaujFTr8OWrM71P-27">
          <mxGeometry relative="1" as="geometry">
            <mxPoint x="510" y="275" as="targetPoint" />
          </mxGeometry>
        </mxCell>
        <mxCell id="pHP85MaujFTr8OWrM71P-27" value="GPIO" style="text;html=1;align=center;verticalAlign=middle;whiteSpace=wrap;rounded=0;" vertex="1" parent="1">
          <mxGeometry x="390" y="260" width="60" height="30" as="geometry" />
        </mxCell>
        <mxCell id="pHP85MaujFTr8OWrM71P-29" style="edgeStyle=orthogonalEdgeStyle;rounded=0;orthogonalLoop=1;jettySize=auto;html=1;entryX=0;entryY=0.75;entryDx=0;entryDy=0;" edge="1" parent="1" source="pHP85MaujFTr8OWrM71P-28" target="pHP85MaujFTr8OWrM71P-26">
          <mxGeometry relative="1" as="geometry" />
        </mxCell>
        <mxCell id="pHP85MaujFTr8OWrM71P-28" value="I2C" style="text;html=1;align=center;verticalAlign=middle;whiteSpace=wrap;rounded=0;" vertex="1" parent="1">
          <mxGeometry x="390" y="280" width="60" height="30" as="geometry" />
        </mxCell>
        <mxCell id="pHP85MaujFTr8OWrM71P-32" style="edgeStyle=orthogonalEdgeStyle;rounded=0;orthogonalLoop=1;jettySize=auto;html=1;" edge="1" parent="1" source="pHP85MaujFTr8OWrM71P-31" target="pHP85MaujFTr8OWrM71P-33">
          <mxGeometry relative="1" as="geometry">
            <mxPoint x="510" y="200" as="targetPoint" />
          </mxGeometry>
        </mxCell>
        <mxCell id="pHP85MaujFTr8OWrM71P-31" value="Systick" style="text;html=1;align=center;verticalAlign=middle;whiteSpace=wrap;rounded=0;" vertex="1" parent="1">
          <mxGeometry x="390" y="120" width="60" height="30" as="geometry" />
        </mxCell>
        <mxCell id="pHP85MaujFTr8OWrM71P-33" value="timeout" style="rhombus;whiteSpace=wrap;html=1;" vertex="1" parent="1">
          <mxGeometry x="470" y="160" width="80" height="80" as="geometry" />
        </mxCell>
      </root>
    </mxGraphModel>
  </diagram>
</mxfile>
